<svg ria-hiddaen="true" style="position: absolute; width: 0; height: 0; overflow: hidden;" version="1.1" xmlns="http://www.w3.org/2000/svg" xmlns:xlink="http://www.w3.org/1999/xlink">
 <symbol  id="close-svg" viewBox="0 0 18 18">
    <path d="M15 4.10786L13.8921 3L9.5 7.39214L5.10786 3L4 4.10786L8.39214 8.5L4 12.8921L5.10786 14L9.5 9.60786L13.8921 14L15 12.8921L10.6079 8.5L15 4.10786Z"/>
</symbol>
<symbol id="user" viewBox="0 0 18 18" >
<g clip-path="url(#clip0_60_11800)">
<path d="M9 9C10.6575 9 12 7.6575 12 6C12 4.3425 10.6575 3 9 3C7.3425 3 6 4.3425 6 6C6 7.6575 7.3425 9 9 9ZM9 10.5C6.9975 10.5 3 11.505 3 13.5V14.25C3 14.6625 3.3375 15 3.75 15H14.25C14.6625 15 15 14.6625 15 14.25V13.5C15 11.505 11.0025 10.5 9 10.5Z" fill="currentColor" />
</g>
<defs>
<clipPath id="clip0_60_11800">
<rect width="18" height="18" fill="white"/>
</clipPath>
</defs>
</symbol>
<symbol id="phone" viewBox="0 0 18 18">
<g clip-path="url(#clip0_11_5473)">
<path d="M13.996 11.1226L12.1579 10.9127C11.7164 10.862 11.2822 11.014 10.9711 11.3252L9.63948 12.6568C7.59147 11.6147 5.91254 9.94296 4.87044 7.8877L6.20925 6.54888C6.52043 6.2377 6.6724 5.80349 6.62174 5.36205L6.41188 3.53836C6.32504 2.80745 5.70991 2.25745 4.97176 2.25745H3.71979C2.90203 2.25745 2.22178 2.93771 2.27243 3.75547C2.65598 9.93572 7.59871 14.8712 13.7717 15.2548C14.5894 15.3054 15.2697 14.6252 15.2697 13.8074V12.5555C15.2769 11.8245 14.7269 11.2094 13.996 11.1226Z" fill="currentColor" />
</g>
<defs>
<clipPath id="clip0_11_5473">
<rect width="18" height="18" fill="white"/>
</clipPath>
</defs>
</symbol>
<symbol id="mail" tabindex="0" viewBox="0 0 18 18" >
<g clip-path="url(#clip0_11_5479)">
<path d="M15 3H3C2.175 3 1.5075 3.675 1.5075 4.5L1.5 13.5C1.5 14.325 2.175 15 3 15H15C15.825 15 16.5 14.325 16.5 13.5V4.5C16.5 3.675 15.825 3 15 3ZM14.7 6.1875L9.3975 9.5025C9.1575 9.6525 8.8425 9.6525 8.6025 9.5025L3.3 6.1875C3.1125 6.0675 3 5.865 3 5.6475C3 5.145 3.5475 4.845 3.975 5.1075L9 8.25L14.025 5.1075C14.4525 4.845 15 5.145 15 5.6475C15 5.865 14.8875 6.0675 14.7 6.1875Z" fill="currentColor"/>
</g>
<defs>
<clipPath id="clip0_11_5479">
<rect width="18" height="18" fill="white"/>
</clipPath>
</defs>
</symbol>
<symbol id="icon-send" viewBox="0 0 24 24">
<path d="M24 0L0 13.5L7.66994 16.3407L19.5 5.25002L10.5017 17.3896L10.509 17.3923L10.5 17.3896V24.0001L14.8013 18.982L20.2501 21.0001L24 0Z" fill="white"/>
</symbol>
</svg>